# xmcd
#
# Track frame offsets:
#	150
#	16000
#	34278
#	48129
#	63585
#	80347
#	98961
#	112100
#	122559
#	136632
#	151383
#	170476
#	185792
#	197861
#	216695
#	229956
#
# Disc length: 3243 seconds
#
# Revision: 1
# Processed by: cddbd v1.5.2PL0 Copyright (c) Steve Scherf et al.
# Submitted via: audiograbber 1.83.01
#
DISCID=e30ca910
DTITLE=M T M - M T M 025
DYEAR=2007
DGENRE=Country
TTITLE0=If Leavin Leaves You Lonely  - Sherida Eastman
TTITLE1=Movin On  - P J Price
TTITLE2=Happy  - Billy Yates
TTITLE3=I Drank Myself To Bed  - Sharman
TTITLE4=Tail Light and Love  - Desert Heat
TTITLE5=How Does It Feel  - Rachel Williams
TTITLE6=City Of Light  - Lisa Dudley
TTITLE7=North Carolina, The Place To Be  - Dick Barnes
TTITLE8=Pullin The Road  - Ray William Roldan
TTITLE9=All About Us - Kim Mclean
TTITLE10=Johnny Cash Lead Me To Jesus  - Michael J Ramplin
TTITLE11=I´m Still Missing You  - Bill Durham
TTITLE12=Have You Ever Wondrede  - Rachel Lilliott
TTITLE13=West Of The Rockies  - John Foster
TTITLE14=Stayed  - Jim Christaldi
TTITLE15=Saying Goodbye  - Tess Reyes
EXTD=
EXTT0=
EXTT1=
EXTT2=
EXTT3=
EXTT4=
EXTT5=
EXTT6=
EXTT7=
EXTT8=
EXTT9=
EXTT10=
EXTT11=
EXTT12=
EXTT13=
EXTT14=
EXTT15=
PLAYORDER=
